mtllib ./stone.mtl
g Icosphere
v 0 0 0
v 0.6823314 -1.786367 1.104035
v -1.104035 -0.6823314 1.786367
v 0 0 0
v -1.104035 -0.6823314 1.786367
v -2.208071 0 0
v 0 0 0
v -2.208071 0 0
v -1.104035 -0.6823314 -1.786367
v 0 0 0
v -1.104035 -0.6823314 -1.786367
v 0.6823314 -1.786367 -1.104035
v 0 0 0
v 0.6823314 -1.786367 -1.104035
v 0.6823314 -1.786367 1.104035
v -2.208071 0 0
v -1.104035 -0.6823314 1.786367
v -2.890402 -1.786367 1.104035
v -1.104035 -0.6823314 1.786367
v 0.6823314 -1.786367 1.104035
v -1.104035 -2.890402 1.786367
v 0.6823314 -1.786367 1.104035
v 0.6823314 -1.786367 -1.104035
v 0 -3.572733 0
v 0.6823314 -1.786367 -1.104035
v -1.104035 -0.6823314 -1.786367
v -1.104035 -2.890402 -1.786367
v -1.104035 -0.6823314 -1.786367
v -2.208071 0 0
v -2.890402 -1.786367 -1.104035
v -2.208071 -3.572733 0
v -2.890402 -1.786367 1.104035
v -1.104035 -2.890402 1.786367
v -2.208071 -3.572733 0
v -1.104035 -2.890402 1.786367
v 0 -3.572733 0
v -2.208071 -3.572733 0
v 0 -3.572733 0
v -1.104035 -2.890402 -1.786367
v -2.208071 -3.572733 0
v -1.104035 -2.890402 -1.786367
v -2.890402 -1.786367 -1.104035
v -2.208071 -3.572733 0
v -2.890402 -1.786367 -1.104035
v -2.890402 -1.786367 1.104035
v -1.104035 -2.890402 1.786367
v -2.890402 -1.786367 1.104035
v -1.104035 -0.6823314 1.786367
v 0 -3.572733 0
v -1.104035 -2.890402 1.786367
v 0.6823314 -1.786367 1.104035
v -1.104035 -2.890402 -1.786367
v 0 -3.572733 0
v 0.6823314 -1.786367 -1.104035
v -2.890402 -1.786367 -1.104035
v -1.104035 -2.890402 -1.786367
v -1.104035 -0.6823314 -1.786367
v -2.890402 -1.786367 1.104035
v -2.890402 -1.786367 -1.104035
v -2.208071 0 0

vn 0.5773502 0.5773502 0.5773502
vn 0.5773502 0.5773502 0.5773502
vn 0.5773502 0.5773502 0.5773502
vn 0 0.9341723 0.3568221
vn 0 0.9341723 0.3568221
vn 0 0.9341723 0.3568221
vn 0 0.9341723 -0.3568221
vn 0 0.9341723 -0.3568221
vn 0 0.9341723 -0.3568221
vn 0.5773502 0.5773502 -0.5773502
vn 0.5773502 0.5773502 -0.5773502
vn 0.5773502 0.5773502 -0.5773502
vn 0.9341723 0.3568221 0
vn 0.9341723 0.3568221 0
vn 0.9341723 0.3568221 0
vn -0.5773502 0.5773502 0.5773502
vn -0.5773502 0.5773502 0.5773502
vn -0.5773502 0.5773502 0.5773502
vn 0.3568221 0 0.9341724
vn 0.3568221 0 0.9341724
vn 0.3568221 0 0.9341724
vn 0.9341723 -0.3568221 0
vn 0.9341723 -0.3568221 0
vn 0.9341723 -0.3568221 0
vn 0.3568221 0 -0.9341723
vn 0.3568221 0 -0.9341723
vn 0.3568221 0 -0.9341723
vn -0.5773502 0.5773502 -0.5773502
vn -0.5773502 0.5773502 -0.5773502
vn -0.5773502 0.5773502 -0.5773502
vn -0.5773502 -0.5773502 0.5773502
vn -0.5773502 -0.5773502 0.5773502
vn -0.5773502 -0.5773502 0.5773502
vn 0 -0.9341723 0.3568222
vn 0 -0.9341723 0.3568222
vn 0 -0.9341723 0.3568222
vn 0 -0.9341723 -0.3568222
vn 0 -0.9341723 -0.3568222
vn 0 -0.9341723 -0.3568222
vn -0.5773502 -0.5773502 -0.5773502
vn -0.5773502 -0.5773502 -0.5773502
vn -0.5773502 -0.5773502 -0.5773502
vn -0.9341723 -0.3568221 0
vn -0.9341723 -0.3568221 0
vn -0.9341723 -0.3568221 0
vn -0.3568221 0 0.9341723
vn -0.3568221 0 0.9341723
vn -0.3568221 0 0.9341723
vn 0.5773502 -0.5773502 0.5773502
vn 0.5773502 -0.5773502 0.5773502
vn 0.5773502 -0.5773502 0.5773502
vn 0.5773502 -0.5773502 -0.5773502
vn 0.5773502 -0.5773502 -0.5773502
vn 0.5773502 -0.5773502 -0.5773502
vn -0.3568222 0 -0.9341724
vn -0.3568222 0 -0.9341724
vn -0.3568222 0 -0.9341724
vn -0.9341723 0.3568221 0
vn -0.9341723 0.3568221 0
vn -0.9341723 0.3568221 0

vt 1.104035 1.786367
vt 1.786367 0
vt 0 1.104035
vt -1.104035 0
vt 0 1.786367
vt 1.104035 0
vt -1.104035 0
vt 1.104035 0
vt 0 -1.786367
vt -1.104035 1.786367
vt 0 1.104035
vt -1.786367 0
vt 0 1.786367
vt 1.104035 0
vt -1.104035 0
vt -1.104035 1.786367
vt 0 1.104035
vt -1.786367 0
vt 0 1.104035
vt 1.786367 0
vt 0 -1.104035
vt -1.104035 0
vt 1.104035 0
vt 0 -1.786367
vt -1.786367 0
vt 0 1.104035
vt 0 -1.104035
vt 0 1.104035
vt 1.104035 1.786367
vt 1.786367 0
vt -1.104035 -1.786367
vt -1.786367 0
vt 0 -1.104035
vt -1.104035 0
vt 0 1.786367
vt 1.104035 0
vt -1.104035 0
vt 1.104035 0
vt 0 -1.786367
vt 1.104035 -1.786367
vt 0 -1.104035
vt 1.786367 0
vt 0 -1.786367
vt -1.104035 0
vt 1.104035 0
vt 0 -1.104035
vt -1.786367 0
vt 0 1.104035
vt 1.104035 -1.786367
vt 0 -1.104035
vt 1.786367 0
vt 0 -1.104035
vt -1.104035 -1.786367
vt -1.786367 0
vt 1.786367 0
vt 0 -1.104035
vt 0 1.104035
vt 1.104035 0
vt -1.104035 0
vt 0 1.786367

g Default_Prototype
usemtl Default_Prototype
usemap Default_Prototype
f 2/2/2 1/1/1 3/3/3
f 5/5/5 4/4/4 6/6/6
f 8/8/8 7/7/7 9/9/9
f 11/11/11 10/10/10 12/12/12
f 14/14/14 13/13/13 15/15/15
f 17/17/17 16/16/16 18/18/18
f 20/20/20 19/19/19 21/21/21
f 23/23/23 22/22/22 24/24/24
f 26/26/26 25/25/25 27/27/27
f 29/29/29 28/28/28 30/30/30
f 32/32/32 31/31/31 33/33/33
f 35/35/35 34/34/34 36/36/36
f 38/38/38 37/37/37 39/39/39
f 41/41/41 40/40/40 42/42/42
f 44/44/44 43/43/43 45/45/45
f 47/47/47 46/46/46 48/48/48
f 50/50/50 49/49/49 51/51/51
f 53/53/53 52/52/52 54/54/54
f 56/56/56 55/55/55 57/57/57
f 59/59/59 58/58/58 60/60/60
